HIERARCHY
ROOT Hips
{
  OFFSET 0.163577 18.0439 0.220624
  CHANNELS 6 Xposition Yposition Zposition Zrotation Xrotation Yrotation
  JOINT LHipJoint
  {
    OFFSET 0 0 0
    CHANNELS 3 Zrotation Xrotation Yrotation
    JOINT LeftUpLeg
    {
      OFFSET 1.8 -1.4 0.085
      CHANNELS 3 Zrotation Xrotation Yrotation
      JOINT LeftLeg
      {
        OFFSET 2.215 -6 0
        CHANNELS 3 Zrotation Xrotation Yrotation
        JOINT LeftFoot
        {
          OFFSET 2.5 -6.9 0
          CHANNELS 3 Zrotation Xrotation Yrotation
          JOINT LeftToeBase
          {
            OFFSET 0.2 -0.5 1.95
            CHANNELS 3 Zrotation Xrotation Yrotation
            End Site
            {
              OFFSET 0 0 1
            }
          }
        }
      }
    }
  }
  JOINT RHipJoint
  {
    OFFSET 0 0 0
    CHANNELS 3 Zrotation Xrotation Yrotation
    JOINT RightUpLeg
    {
      OFFSET -1.8 -1.4 0.085
      CHANNELS 3 Zrotation Xrotation Yrotation
      JOINT RightLeg
      {
        OFFSET -2.215 -6 0
        CHANNELS 3 Zrotation Xrotation Yrotation
        JOINT RightFoot
        {
          OFFSET -2.5 -6.9 0
          CHANNELS 3 Zrotation Xrotation Yrotation
          JOINT RightToeBase
          {
            OFFSET -0.2 -0.5 1.95
            CHANNELS 3 Zrotation Xrotation Yrotation
            End Site
            {
              OFFSET 0 0 1
            }
          }
        }
      }
    }
  }
  JOINT LowerBack
  {
    OFFSET 0 0 0
    CHANNELS 3 Zrotation Xrotation Yrotation
    JOINT Spine
    {
      OFFSET -0.087 1.94 -0.2889
      CHANNELS 3 Zrotation Xrotation Yrotation
      JOINT Spine1
      {
        OFFSET 0 1.95 0.06
        CHANNELS 3 Zrotation Xrotation Yrotation
        JOINT Neck
        {
          OFFSET 0 0 0
          CHANNELS 3 Zrotation Xrotation Yrotation
          JOINT Neck1
          {
            OFFSET 0 1.6 0.34
            CHANNELS 3 Zrotation Xrotation Yrotation
            JOINT Head
            {
              OFFSET 0 1.667 -0.24
              CHANNELS 3 Zrotation Xrotation Yrotation
              End Site
              {
                OFFSET 0 1.686 -0.12
              }
            }
          }
        }
        JOINT LeftShoulder
        {
          OFFSET 0 0 0
          CHANNELS 3 Zrotation Xrotation Yrotation
          JOINT LeftArm
          {
            OFFSET 2.7 1.55 -0.73
            CHANNELS 3 Zrotation Xrotation Yrotation
            JOINT LeftForeArm
            {
              OFFSET 5.45 0 0
              CHANNELS 3 Zrotation Xrotation Yrotation
              JOINT LeftHand
              {
                OFFSET 3.45 0 0
                CHANNELS 3 Zrotation Xrotation Yrotation
                JOINT LeftFingerBase
                {
                  OFFSET 0 0 0
                  CHANNELS 3 Zrotation Xrotation Yrotation
                  JOINT LeftHandIndex1
                  {
                    OFFSET 0.75 0 0
                    CHANNELS 3 Zrotation Xrotation Yrotation
                    End Site
                    {
                      OFFSET 0.6 0 0
                    }
                  }
                }
                JOINT LThumb
                {
                  OFFSET 0 0 0
                  CHANNELS 3 Zrotation Xrotation Yrotation
                  End Site
                  {
                    OFFSET 0.59 0 0.59
                  }
                }
              }
            }
          }
        }
        JOINT RightShoulder
        {
          OFFSET 0 0 0
          CHANNELS 3 Zrotation Xrotation Yrotation
          JOINT RightArm
          {
            OFFSET -2.7 1.55 -0.73
            CHANNELS 3 Zrotation Xrotation Yrotation
            JOINT RightForeArm
            {
              OFFSET -5.45 0 0
              CHANNELS 3 Zrotation Xrotation Yrotation
              JOINT RightHand
              {
                OFFSET -3.45 0 0
                CHANNELS 3 Zrotation Xrotation Yrotation
                JOINT RightFingerBase
                {
                  OFFSET 0 0 0
                  CHANNELS 3 Zrotation Xrotation Yrotation
                  JOINT RightHandIndex1
                  {
                    OFFSET -0.75 0 0
                    CHANNELS 3 Zrotation Xrotation Yrotation
                    End Site
                    {
                      OFFSET -0.6 0 0
                    }
                  }
                }
                JOINT RThumb
                {
                  OFFSET 0 0 0
                  CHANNELS 3 Zrotation Xrotation Yrotation
                  End Site
                  {
                    OFFSET -0.59 0 0.59
                  }
                }
              }
            }
          }
        }
      }
    }
  }
}
MOTION
Frames:	11
Frame Time:	0.00833333
0.163619 18.0439 0.220636 -0.000294242 0.00116234 -0.0027451 9.29869e-020 -3.88251e-019 7.76503e-019 -18.4946 -9.00237 0.622874 0.568037 11.4369 13.0694 -1.73719 -2.0884 -13.8301 -1.07283e-015 1.70152e-014 -1.00345e-013 9.29869e-020 -3.88251e-019 7.76503e-019 19.7979 -7.99268 -0.167489 -0.889154 7.42072 -20.2551 1.40592 1.13145 20.5229 -2.98269e-015 1.3661e-013 1.82019e-013 9.29869e-020 -3.88251e-019 7.76503e-019 0.00700517 -0.00339148 -1.99364e-005 -0.00350577 0.00281241 0.000626697 0.00522777 -16.0003 0.00136557 0.0050542 20.9997 -8.07631e-005 0.000624382 10.9977 0.0107917 0.341825 -1.01569e-010 3.50353 -26.2967 -24.2934 -2.64412 2.05891 25.8425 -2.09192 -2.03885 -0.408953 2.77237 3.33487e-006 8.19936e-009 2.28658e-008 -1.09255e-009 -5.20817e-008 -1.15619e-008 -2.56712e-015 -1.49089e-016 7.95139e-016 -0.314912 0.0315808 -3.14889 67.5453 -43.2351 69.1545 -10.1983 -4.91181 -0.000318265 -5.38992 -0.95831 -0.0815359 2.49906e-006 9.34828e-006 -1.84077e-006 -3.18055e-015 1.27222e-014 -7.95139e-016 -3.18055e-015 -3.18055e-015 7.95139e-016 
0.163809 18.0439 0.220704 -0.00145511 0.00638439 -0.0136587 -4.50053e-019 0 -3.10601e-018 -18.495 -9.00543 0.61995 0.571448 11.4378 13.0696 -1.74563 -2.09355 -13.8258 -4.73607e-015 1.70149e-014 -1.00343e-013 -4.50053e-019 0 -3.10601e-018 19.8015 -8.00273 -0.163039 -0.89312 7.41466 -20.2701 1.41211 1.14325 20.538 -2.63701e-015 1.3661e-013 1.82017e-013 -4.50053e-019 0 -3.10601e-018 0.007005 -0.0184872 -0.000528107 -0.0184196 0.0153373 0.00285253 0.026472 -16.0009 0.00717799 0.0254921 20.9991 -0.000127122 0.00233558 10.9864 0.0559703 0.341825 -1.01569e-010 3.50353 -26.2922 -24.3495 -2.488 2.21465 25.9517 -2.42938 -2.15264 -0.436498 2.93584 3.33487e-006 8.19936e-009 2.28658e-008 -1.09254e-009 -5.20817e-008 -1.15619e-008 8.38623e-017 -3.97569e-016 -3.97569e-016 -0.314914 0.0315809 -3.14554 67.571 -43.2191 69.1559 -10.2041 -4.91181 -0.000318265 -5.38992 -0.95831 -0.0815359 2.49906e-006 9.34828e-006 -1.84077e-006 -3.18055e-015 1.11319e-014 -7.95139e-016 -8.82781e-032 3.18055e-015 1.59028e-015 
0.164003 18.0439 0.220775 -0.00261157 0.0116981 -0.0245617 -9.50912e-019 -3.10601e-018 6.21202e-018 -18.4955 -9.00852 0.616984 0.574897 11.4386 13.0698 -1.75421 -2.09872 -13.8215 2.5541e-015 1.70143e-014 -1.00346e-013 -9.50912e-019 -3.10601e-018 6.21202e-018 19.8051 -8.01291 -0.158572 -0.897116 7.40857 -20.2853 1.4181 1.15525 20.5535 -1.67017e-015 1.36615e-013 1.82025e-013 -9.50912e-019 -3.10601e-018 6.21202e-018 0.00700451 -0.0338287 -0.00110491 -0.0334768 0.0280661 0.0050334 0.0477697 -16.0014 0.0130465 0.0459653 20.9986 -0.000129211 0.00393801 10.9748 0.101468 0.341825 -1.01569e-010 3.50353 -26.2873 -24.4064 -2.32879 2.37471 26.0627 -2.77345 -2.26845 -0.464485 3.10197 3.33487e-006 8.19936e-009 2.28658e-008 -1.09254e-009 -5.20817e-008 -1.15619e-008 4.9603e-015 2.48481e-016 -0 -0.314915 0.0315811 -3.14211 67.5967 -43.2029 69.1571 -10.2098 -4.91181 -0.000318265 -5.38992 -0.95831 -0.0815359 2.49906e-006 9.34828e-006 -1.84077e-006 2.64834e-031 9.54166e-015 -1.59028e-015 -3.18055e-015 0 -7.95139e-016 
0.164154 18.0438 0.220813 -0.00379275 0.0160038 -0.0355821 -1.42561e-019 -6.21202e-018 -0 -18.4958 -9.01121 0.614492 0.577925 11.4397 13.0708 -1.76126 -2.10374 -13.8164 5.11262e-016 1.70143e-014 -1.00349e-013 -1.42561e-019 -6.21202e-018 -0 19.8088 -8.02167 -0.154293 -0.900812 7.40284 -20.2986 1.42642 1.16507 20.5646 3.47395e-016 1.36609e-013 1.82012e-013 -1.42561e-019 -6.21202e-018 -0 0.00700441 -0.0464667 -0.000926788 -0.0469684 0.0385507 0.00770877 0.0684815 -16.003 0.0182988 0.0660494 20.997 -0.000618269 0.00695118 10.967 0.143419 0.341825 -1.01569e-010 3.50353 -26.2832 -24.4523 -2.2019 2.50446 26.1446 -3.05232 -2.36011 -0.48748 3.23888 3.33487e-006 8.19936e-009 2.28658e-008 -1.09254e-009 -5.20817e-008 -1.15619e-008 -1.51573e-015 -1.73937e-016 -0 -0.314917 0.0315811 -3.13946 67.6219 -43.1884 69.1593 -10.2161 -4.91181 -0.000318265 -5.38992 -0.95831 -0.0815359 2.49906e-006 9.34828e-006 -1.84077e-006 -1.27222e-014 1.11319e-014 -1.59028e-015 -3.18055e-015 0 -0 
0.164208 18.0438 0.220781 -0.00502961 0.0181926 -0.0468615 7.58303e-020 0 -0 -18.4959 -9.01307 0.612998 0.580048 11.4411 13.0735 -1.76518 -2.10846 -13.8096 -3.50051e-015 1.70159e-014 -1.00346e-013 7.58303e-020 0 -0 19.8127 -8.02752 -0.150339 -0.903947 7.39793 -20.3081 1.43977 1.17035 20.5664 -1.68357e-015 1.36602e-013 1.82e-013 7.58303e-020 0 -0 0.00664686 -0.0533566 0.000845155 -0.0571135 0.0442658 0.0114227 0.0879942 -16.0067 0.0222893 0.0853366 20.9933 -0.00209913 0.0128953 10.967 0.178093 0.341825 -1.01569e-010 3.50353 -26.2814 -24.4751 -2.14342 2.5677 26.1667 -3.19262 -2.40112 -0.499992 3.31433 3.33487e-006 8.19936e-009 2.28658e-008 -1.09254e-009 -5.20817e-008 -1.15619e-008 2.88859e-015 7.45443e-017 -0 -0.314917 0.0315812 -3.13847 67.6463 -43.1774 69.1637 -10.224 -4.91181 -0.000318265 -5.38992 -0.95831 -0.0815359 2.49906e-006 9.34828e-006 -1.84077e-006 0 9.54166e-015 -0 3.18055e-015 -3.18055e-015 -0 
0.164072 18.0438 0.22064 -0.00635214 0.0176287 -0.0586622 -1.89273e-018 -6.21202e-018 -0 -18.4951 -9.01415 0.612824 0.580742 11.4435 13.0785 -1.76608 -2.11288 -13.7993 3.35206e-015 1.70147e-014 -1.00346e-013 -1.89273e-018 -6.21202e-018 -0 19.8178 -8.03075 -0.145754 -0.907428 7.39466 -20.3143 1.46121 1.16983 20.5556 -3.40989e-015 1.36621e-013 1.82025e-013 -1.89273e-018 -6.21202e-018 -0 0.00424187 -0.05173 0.00481244 -0.0620493 0.0429476 0.0164854 0.106417 -16.0136 0.0251235 0.103893 20.9864 -0.00440362 0.0226446 10.9782 0.205785 0.341825 -1.01569e-010 3.50353 -26.2841 -24.4666 -2.17826 2.53995 26.1079 -3.14488 -2.37374 -0.498595 3.30837 3.33487e-006 8.19936e-009 2.28658e-008 -1.09255e-009 -5.20817e-008 -1.15619e-008 3.52998e-015 4.96962e-017 3.97569e-016 -0.314916 0.0315811 -3.14036 67.6732 -43.1696 69.1737 -10.2359 -4.91181 -0.000318265 -5.38992 -0.95831 -0.0815359 2.49906e-006 9.34828e-006 -1.84077e-006 3.97252e-031 1.43125e-014 -1.59028e-015 0 0 -7.95139e-016 
0.163859 18.0438 0.220444 -0.00771969 0.0154744 -0.0706745 -3.36687e-019 6.21202e-018 -0 -18.4942 -9.01463 0.613403 0.580732 11.4463 13.0848 -1.76473 -2.11707 -13.7877 -6.70437e-016 1.70159e-014 -1.00346e-013 -3.36687e-019 6.21202e-018 -0 19.8232 -8.0319 -0.141317 -0.910585 7.39205 -20.3178 1.48657 1.16591 20.5378 -6.16339e-015 1.36615e-013 1.82049e-013 -3.36687e-019 6.21202e-018 -0 0.0016814 -0.0456895 0.00998833 -0.0643907 0.03797 0.0223282 0.123982 -16.0222 0.0270544 0.121879 20.9778 -0.00740999 0.0345747 10.9953 0.228242 0.341825 -1.01569e-010 3.50353 -26.2887 -24.4407 -2.26492 2.46188 26.004 -2.99236 -2.30815 -0.489301 3.25611 3.33487e-006 8.19936e-009 2.28658e-008 -1.09255e-009 -5.20817e-008 -1.15619e-008 -3.99588e-015 9.93923e-017 7.95139e-016 -0.314915 0.031581 -3.14357 67.6999 -43.1643 69.1857 -10.2491 -4.91181 -0.000318265 -5.38992 -0.95831 -0.0815359 2.49906e-006 9.34828e-006 -1.84077e-006 -1.10348e-031 7.95139e-015 7.95139e-016 3.18055e-015 -1.59028e-015 -0 
0.163742 18.0438 0.220275 -0.00907302 0.0132214 -0.0824101 3.03321e-020 3.10601e-018 2.48481e-017 -18.4938 -9.01462 0.613993 0.581078 11.4485 13.0913 -1.76157 -2.12113 -13.7778 -3.12514e-015 1.70151e-014 -1.00344e-013 3.03321e-020 3.10601e-018 2.48481e-017 19.8271 -8.03111 -0.138544 -0.912026 7.38859 -20.3186 1.50976 1.16159 20.5204 -1.29744e-015 1.36577e-013 1.82012e-013 3.03321e-020 3.10601e-018 2.48481e-017 0.000831138 -0.0410116 0.0150463 -0.0679151 0.0340712 0.0282218 0.140757 -16.0301 0.0281689 0.139346 20.9698 -0.0111908 0.0466102 11.0117 0.246489 0.341825 -1.01569e-010 3.50353 -26.2915 -24.416 -2.34802 2.38697 25.9029 -2.84532 -2.24428 -0.479968 3.20329 3.33487e-006 8.19936e-009 2.28658e-008 -1.09254e-009 -5.20817e-008 -1.15619e-008 -1.40392e-015 -1.49089e-016 -0 -0.314913 0.0315809 -3.14573 67.7208 -43.1611 69.1931 -10.259 -4.91181 -0.000318265 -5.38992 -0.95831 -0.0815359 2.49906e-006 9.34828e-006 -1.84077e-006 -3.18055e-015 9.54166e-015 -0 3.18055e-015 0 7.95139e-016 
0.163902 18.0438 0.220211 -0.0103258 0.0124033 -0.0934728 5.82377e-019 0 -0 -18.495 -9.01425 0.613809 0.582863 11.449 13.0969 -1.757 -2.12516 -13.7727 -9.35258e-015 1.70147e-014 -1.00344e-013 5.82377e-019 0 -0 19.8277 -8.02867 -0.138956 -0.910171 7.38287 -20.3165 1.52483 1.15974 20.5107 -8.14532e-015 1.3664e-013 1.82037e-013 5.82377e-019 0 -0 0.00361935 -0.0434096 0.018724 -0.0765237 0.0358269 0.0335245 0.15695 -16.0353 0.0285459 0.156503 20.9646 -0.0158974 0.056695 11.0204 0.26153 0.341825 -1.01569e-010 3.50353 -26.2889 -24.411 -2.37395 2.36585 25.8515 -2.81005 -2.22075 -0.478111 3.19367 3.33487e-006 8.19936e-009 2.28658e-008 -1.09254e-009 -5.20817e-008 -1.15619e-008 1.05604e-015 -4.47266e-016 7.95139e-016 -0.314914 0.031581 -3.1444 67.7303 -43.1598 69.1893 -10.2608 -4.91129 -0.000318265 -5.38992 -0.958383 -0.0815359 2.49906e-006 9.34828e-006 -1.84077e-006 3.18055e-015 1.11319e-014 -0 -3.18055e-015 0 -7.95139e-016 
0.164448 18.0438 0.220272 -0.0110553 0.0143298 -0.105053 3.20611e-018 6.21202e-018 1.2424e-017 -18.4993 -9.01425 0.611826 0.586943 11.4475 13.1017 -1.75036 -2.12956 -13.7718 -4.58178e-015 1.70145e-014 -1.00346e-013 3.20611e-018 6.21202e-018 1.2424e-017 19.8225 -8.02678 -0.143299 -0.901519 7.37633 -20.31 1.53102 1.15922 20.5082 -2.81895e-015 1.3659e-013 1.82012e-013 3.20611e-018 6.21202e-018 1.2424e-017 0.0118019 -0.0544842 0.0214162 -0.0937655 0.0428538 0.0392537 0.174714 -16.0366 0.0281305 0.175719 20.9633 -0.0227646 0.064076 11.0189 0.273507 0.341825 -1.01569e-010 3.50353 -26.2786 -24.4257 -2.34362 2.39638 25.85 -2.88235 -2.23405 -0.481963 3.21671 3.33487e-006 8.19936e-009 2.28658e-008 -1.09255e-009 -5.20817e-008 -1.15619e-008 -2.28913e-015 9.93923e-017 -7.95139e-016 -0.314918 0.0315812 -3.13758 67.7254 -43.1628 69.1701 -10.2525 -4.90873 -0.000318264 -5.38992 -0.959094 -0.081536 2.49906e-006 9.34828e-006 -1.84077e-006 -3.18055e-015 1.27222e-014 -0 -1.59028e-014 1.59028e-015 -7.95139e-016 
0.165187 18.0437 0.220398 -0.0116827 0.0170098 -0.116303 -3.57919e-019 -6.21202e-018 -0 -18.5048 -9.0139 0.609379 0.591973 11.4448 13.1063 -1.74203 -2.13391 -13.774 -5.13946e-015 1.70163e-014 -1.00346e-013 -3.57919e-019 -6.21202e-018 -0 19.8147 -8.02334 -0.150092 -0.890036 7.36844 -20.3006 1.53221 1.1595 20.5094 2.92693e-016 1.3659e-013 1.82012e-013 -3.57919e-019 -6.21202e-018 -0 0.0227801 -0.0697392 0.0234495 -0.114385 0.0530348 0.0448476 0.192048 -16.0362 0.0270419 0.194771 20.9637 -0.0306113 0.0705426 11.0131 0.281751 0.341825 -1.01569e-010 3.50353 -26.2646 -24.4501 -2.28503 2.45285 25.873 -3.00866 -2.26657 -0.489059 3.25829 3.33487e-006 8.19936e-009 2.28658e-008 -1.09255e-009 -5.20817e-008 -1.15619e-008 -5.95112e-015 0 -0 -0.314923 0.0315815 -3.12836 67.7118 -43.168 69.1428 -10.2383 -4.9061 -0.000318263 -5.38992 -0.959873 -0.081536 2.49906e-006 9.34828e-006 -1.84077e-006 -6.36111e-015 1.11319e-014 -1.59028e-015 3.18055e-015 1.59028e-015 -0 
